<svg width="143" height="19" viewBox="0 0 143 19" fill="none" xmlns="http://www.w3.org/2000/svg">
<path d="M3.55 12.05H2.7C2.24913 12.05 1.81673 11.8709 1.49792 11.5521C1.17911 11.2333 1 10.8009 1 10.35V2.7C1 2.24913 1.17911 1.81673 1.49792 1.49792C1.81673 1.17911 2.24913 1 2.7 1H10.35C10.8009 1 11.2333 1.17911 11.5521 1.49792C11.8709 1.81673 12.05 2.24913 12.05 2.7V3.55M8.65 6.95H16.3C17.2389 6.95 18 7.71112 18 8.65V16.3C18 17.2389 17.2389 18 16.3 18H8.65C7.71112 18 6.95 17.2389 6.95 16.3V8.65C6.95 7.71112 7.71112 6.95 8.65 6.95Z" stroke="black" stroke-width="1.5" stroke-linecap="round" stroke-linejoin="round"/>
<path d="M39.596 15V5.2H43.586C44.6313 5.2 45.546 5.41 46.33 5.83C47.1233 6.24067 47.7393 6.81467 48.178 7.552C48.6167 8.28933 48.836 9.13867 48.836 10.1C48.836 11.0613 48.6167 11.9107 48.178 12.648C47.7393 13.3853 47.1233 13.964 46.33 14.384C45.546 14.7947 44.6313 15 43.586 15H39.596ZM40.632 14.104H43.53C44.398 14.104 45.1493 13.936 45.784 13.6C46.428 13.2547 46.9273 12.7833 47.282 12.186C47.6367 11.5793 47.814 10.884 47.814 10.1C47.814 9.30667 47.6367 8.61133 47.282 8.014C46.9273 7.41667 46.428 6.95 45.784 6.614C45.1493 6.26867 44.398 6.096 43.53 6.096H40.632V14.104ZM53.9904 15.07C53.3651 15.07 52.8191 14.9533 52.3524 14.72C51.8857 14.4867 51.5217 14.1367 51.2604 13.67C51.0084 13.2033 50.8824 12.62 50.8824 11.92V7.65H51.8764V11.808C51.8764 12.592 52.0677 13.1847 52.4504 13.586C52.8424 13.978 53.3884 14.174 54.0884 14.174C54.6017 14.174 55.0451 14.0713 55.4184 13.866C55.8011 13.6513 56.0904 13.3433 56.2864 12.942C56.4917 12.5407 56.5944 12.06 56.5944 11.5V7.65H57.5884V15H56.6364V12.984L56.7904 13.348C56.5571 13.8893 56.1931 14.314 55.6984 14.622C55.2131 14.9207 54.6437 15.07 53.9904 15.07ZM64.1527 15.07C63.518 15.07 62.944 14.9253 62.4307 14.636C61.9173 14.3373 61.5067 13.9127 61.1987 13.362C60.9 12.802 60.7507 12.1207 60.7507 11.318C60.7507 10.5153 60.9 9.83867 61.1987 9.288C61.4973 8.728 61.9033 8.30333 62.4167 8.014C62.93 7.72467 63.5087 7.58 64.1527 7.58C64.8527 7.58 65.478 7.73867 66.0287 8.056C66.5887 8.364 67.0273 8.80267 67.3447 9.372C67.662 9.932 67.8207 10.5807 67.8207 11.318C67.8207 12.0647 67.662 12.718 67.3447 13.278C67.0273 13.838 66.5887 14.2767 66.0287 14.594C65.478 14.9113 64.8527 15.07 64.1527 15.07ZM60.3587 17.716V7.65H61.3107V9.862L61.2127 11.332L61.3527 12.816V17.716H60.3587ZM64.0827 14.188C64.6053 14.188 65.072 14.0713 65.4827 13.838C65.8933 13.5953 66.22 13.2593 66.4627 12.83C66.7053 12.3913 66.8267 11.8873 66.8267 11.318C66.8267 10.7487 66.7053 10.2493 66.4627 9.82C66.22 9.39067 65.8933 9.05467 65.4827 8.812C65.072 8.56933 64.6053 8.448 64.0827 8.448C63.56 8.448 63.0887 8.56933 62.6687 8.812C62.258 9.05467 61.9313 9.39067 61.6887 9.82C61.4553 10.2493 61.3387 10.7487 61.3387 11.318C61.3387 11.8873 61.4553 12.3913 61.6887 12.83C61.9313 13.2593 62.258 13.5953 62.6687 13.838C63.0887 14.0713 63.56 14.188 64.0827 14.188ZM69.8469 15V4.612H70.8409V15H69.8469ZM73.6067 15V7.65H74.6007V15H73.6067ZM74.1107 6.026C73.9054 6.026 73.7327 5.956 73.5927 5.816C73.4527 5.676 73.3827 5.508 73.3827 5.312C73.3827 5.116 73.4527 4.95267 73.5927 4.822C73.7327 4.682 73.9054 4.612 74.1107 4.612C74.316 4.612 74.4887 4.67733 74.6287 4.808C74.7687 4.93867 74.8387 5.102 74.8387 5.298C74.8387 5.50333 74.7687 5.676 74.6287 5.816C74.498 5.956 74.3254 6.026 74.1107 6.026ZM80.4185 15.07C79.6905 15.07 79.0371 14.9113 78.4585 14.594C77.8891 14.2673 77.4411 13.824 77.1145 13.264C76.7878 12.6947 76.6245 12.046 76.6245 11.318C76.6245 10.5807 76.7878 9.932 77.1145 9.372C77.4411 8.812 77.8891 8.37333 78.4585 8.056C79.0371 7.73867 79.6905 7.58 80.4185 7.58C81.0438 7.58 81.6085 7.70133 82.1125 7.944C82.6165 8.18667 83.0131 8.55067 83.3025 9.036L82.5605 9.54C82.3085 9.16667 81.9958 8.89133 81.6225 8.714C81.2491 8.53667 80.8431 8.448 80.4045 8.448C79.8818 8.448 79.4105 8.56933 78.9905 8.812C78.5705 9.04533 78.2391 9.37667 77.9965 9.806C77.7538 10.2353 77.6325 10.7393 77.6325 11.318C77.6325 11.8967 77.7538 12.4007 77.9965 12.83C78.2391 13.2593 78.5705 13.5953 78.9905 13.838C79.4105 14.0713 79.8818 14.188 80.4045 14.188C80.8431 14.188 81.2491 14.0993 81.6225 13.922C81.9958 13.7447 82.3085 13.474 82.5605 13.11L83.3025 13.614C83.0131 14.09 82.6165 14.454 82.1125 14.706C81.6085 14.9487 81.0438 15.07 80.4185 15.07ZM89.8611 15V13.376L89.8191 13.11V10.394C89.8191 9.76867 89.6418 9.288 89.2871 8.952C88.9418 8.616 88.4238 8.448 87.7331 8.448C87.2571 8.448 86.8045 8.52733 86.3751 8.686C85.9458 8.84467 85.5818 9.05467 85.2831 9.316L84.8351 8.574C85.2085 8.25667 85.6565 8.014 86.1791 7.846C86.7018 7.66867 87.2525 7.58 87.8311 7.58C88.7831 7.58 89.5158 7.818 90.0291 8.294C90.5518 8.76067 90.8131 9.47467 90.8131 10.436V15H89.8611ZM87.3271 15.07C86.7765 15.07 86.2958 14.9813 85.8851 14.804C85.4838 14.6173 85.1758 14.3653 84.9611 14.048C84.7465 13.7213 84.6391 13.348 84.6391 12.928C84.6391 12.5453 84.7278 12.2 84.9051 11.892C85.0918 11.5747 85.3905 11.3227 85.8011 11.136C86.2211 10.94 86.7811 10.842 87.4811 10.842H90.0151V11.584H87.5091C86.7998 11.584 86.3051 11.71 86.0251 11.962C85.7545 12.214 85.6191 12.5267 85.6191 12.9C85.6191 13.32 85.7825 13.656 86.1091 13.908C86.4358 14.16 86.8931 14.286 87.4811 14.286C88.0411 14.286 88.5218 14.16 88.9231 13.908C89.3338 13.6467 89.6325 13.2733 89.8191 12.788L90.0431 13.474C89.8565 13.9593 89.5298 14.3467 89.0631 14.636C88.6058 14.9253 88.0271 15.07 87.3271 15.07ZM93.513 15V7.65H94.465V9.652L94.367 9.302C94.5723 8.742 94.9176 8.31733 95.403 8.028C95.8883 7.72933 96.4903 7.58 97.209 7.58V8.546C97.1716 8.546 97.1343 8.546 97.097 8.546C97.0596 8.53667 97.0223 8.532 96.985 8.532C96.2103 8.532 95.6036 8.77 95.165 9.246C94.7263 9.71267 94.507 10.38 94.507 11.248V15H93.513ZM105.12 15.07C104.429 15.07 103.897 14.8833 103.524 14.51C103.151 14.1367 102.964 13.6093 102.964 12.928V6.026H103.958V12.872C103.958 13.3013 104.065 13.6327 104.28 13.866C104.504 14.0993 104.821 14.216 105.232 14.216C105.671 14.216 106.035 14.09 106.324 13.838L106.674 14.552C106.478 14.7293 106.24 14.86 105.96 14.944C105.689 15.028 105.409 15.07 105.12 15.07ZM101.648 8.476V7.65H106.198V8.476H101.648ZM113.09 15V13.376L113.048 13.11V10.394C113.048 9.76867 112.87 9.288 112.516 8.952C112.17 8.616 111.652 8.448 110.962 8.448C110.486 8.448 110.033 8.52733 109.604 8.686C109.174 8.84467 108.81 9.05467 108.512 9.316L108.064 8.574C108.437 8.25667 108.885 8.014 109.408 7.846C109.93 7.66867 110.481 7.58 111.06 7.58C112.012 7.58 112.744 7.818 113.258 8.294C113.78 8.76067 114.042 9.47467 114.042 10.436V15H113.09ZM110.556 15.07C110.005 15.07 109.524 14.9813 109.114 14.804C108.712 14.6173 108.404 14.3653 108.19 14.048C107.975 13.7213 107.868 13.348 107.868 12.928C107.868 12.5453 107.956 12.2 108.134 11.892C108.32 11.5747 108.619 11.3227 109.03 11.136C109.45 10.94 110.01 10.842 110.71 10.842H113.244V11.584H110.738C110.028 11.584 109.534 11.71 109.254 11.962C108.983 12.214 108.848 12.5267 108.848 12.9C108.848 13.32 109.011 13.656 109.338 13.908C109.664 14.16 110.122 14.286 110.71 14.286C111.27 14.286 111.75 14.16 112.152 13.908C112.562 13.6467 112.861 13.2733 113.048 12.788L113.272 13.474C113.085 13.9593 112.758 14.3467 112.292 14.636C111.834 14.9253 111.256 15.07 110.556 15.07ZM116.741 15V7.65H117.693V9.652L117.595 9.302C117.801 8.742 118.146 8.31733 118.631 8.028C119.117 7.72933 119.719 7.58 120.437 7.58V8.546C120.4 8.546 120.363 8.546 120.325 8.546C120.288 8.53667 120.251 8.532 120.213 8.532C119.439 8.532 118.832 8.77 118.393 9.246C117.955 9.71267 117.735 10.38 117.735 11.248V15H116.741ZM125.305 15.07C124.54 15.07 123.868 14.9113 123.289 14.594C122.71 14.2673 122.258 13.824 121.931 13.264C121.604 12.6947 121.441 12.046 121.441 11.318C121.441 10.59 121.595 9.946 121.903 9.386C122.22 8.826 122.65 8.38733 123.191 8.07C123.742 7.74333 124.358 7.58 125.039 7.58C125.73 7.58 126.341 7.73867 126.873 8.056C127.414 8.364 127.839 8.80267 128.147 9.372C128.455 9.932 128.609 10.5807 128.609 11.318C128.609 11.3647 128.604 11.416 128.595 11.472C128.595 11.5187 128.595 11.57 128.595 11.626H122.197V10.884H128.063L127.671 11.178C127.671 10.646 127.554 10.1747 127.321 9.764C127.097 9.344 126.789 9.01733 126.397 8.784C126.005 8.55067 125.552 8.434 125.039 8.434C124.535 8.434 124.082 8.55067 123.681 8.784C123.28 9.01733 122.967 9.344 122.743 9.764C122.519 10.184 122.407 10.6647 122.407 11.206V11.36C122.407 11.92 122.528 12.4147 122.771 12.844C123.023 13.264 123.368 13.5953 123.807 13.838C124.255 14.0713 124.764 14.188 125.333 14.188C125.781 14.188 126.196 14.1087 126.579 13.95C126.971 13.7913 127.307 13.5487 127.587 13.222L128.147 13.866C127.82 14.258 127.41 14.5567 126.915 14.762C126.43 14.9673 125.893 15.07 125.305 15.07ZM130.8 15V6.726C130.8 6.07267 130.991 5.54533 131.374 5.144C131.757 4.74267 132.307 4.542 133.026 4.542C133.306 4.542 133.577 4.57933 133.838 4.654C134.099 4.72867 134.319 4.84533 134.496 5.004L134.16 5.746C134.02 5.62467 133.857 5.536 133.67 5.48C133.483 5.41467 133.283 5.382 133.068 5.382C132.648 5.382 132.326 5.49867 132.102 5.732C131.878 5.96533 131.766 6.31067 131.766 6.768V7.888L131.794 8.35V15H130.8ZM129.484 8.476V7.65H134.034V8.476H129.484ZM139.846 15V13.376L139.804 13.11V10.394C139.804 9.76867 139.626 9.288 139.272 8.952C138.926 8.616 138.408 8.448 137.718 8.448C137.242 8.448 136.789 8.52733 136.36 8.686C135.93 8.84467 135.566 9.05467 135.268 9.316L134.82 8.574C135.193 8.25667 135.641 8.014 136.164 7.846C136.686 7.66867 137.237 7.58 137.816 7.58C138.768 7.58 139.5 7.818 140.014 8.294C140.536 8.76067 140.798 9.47467 140.798 10.436V15H139.846ZM137.312 15.07C136.761 15.07 136.28 14.9813 135.87 14.804C135.468 14.6173 135.16 14.3653 134.946 14.048C134.731 13.7213 134.624 13.348 134.624 12.928C134.624 12.5453 134.712 12.2 134.89 11.892C135.076 11.5747 135.375 11.3227 135.786 11.136C136.206 10.94 136.766 10.842 137.466 10.842H140V11.584H137.494C136.784 11.584 136.29 11.71 136.01 11.962C135.739 12.214 135.604 12.5267 135.604 12.9C135.604 13.32 135.767 13.656 136.094 13.908C136.42 14.16 136.878 14.286 137.466 14.286C138.026 14.286 138.506 14.16 138.908 13.908C139.318 13.6467 139.617 13.2733 139.804 12.788L140.028 13.474C139.841 13.9593 139.514 14.3467 139.048 14.636C138.59 14.9253 138.012 15.07 137.312 15.07Z" fill="black"/>
</svg>
