<svg width="23" height="18" viewBox="0 0 23 18" fill="none" xmlns="http://www.w3.org/2000/svg">
<path d="M21.2632 9H15.1842L13.1579 12H9.10526L7.07895 9H1M21.2632 9V15C21.2632 15.5304 21.0497 16.0391 20.6697 16.4142C20.2897 16.7893 19.7743 17 19.2368 17H3.02632C2.4889 17 1.9735 16.7893 1.59349 16.4142C1.21349 16.0391 1 15.5304 1 15V9M21.2632 9L17.7678 2.11C17.6 1.77679 17.3414 1.49637 17.021 1.30028C16.7006 1.10419 16.3312 1.0002 15.9542 1H6.30895C5.93197 1.0002 5.56252 1.10419 5.24214 1.30028C4.92176 1.49637 4.66315 1.77679 4.49539 2.11L1 9" stroke="black" stroke-width="2" stroke-linecap="round" stroke-linejoin="round"/>
</svg>
