<svg width="19" height="19" viewBox="0 0 19 19" fill="none" xmlns="http://www.w3.org/2000/svg">
<path d="M7.79035 10.3557C8.15746 10.847 8.62582 11.2535 9.16367 11.5476C9.70152 11.8418 10.2963 12.0167 10.9076 12.0605C11.5189 12.1043 12.1325 12.016 12.7067 11.8016C13.281 11.5872 13.8024 11.2516 14.2357 10.8178L16.8002 8.2507C17.5788 7.44378 18.0096 6.36304 17.9998 5.24125C17.9901 4.11946 17.5406 3.04638 16.7481 2.25312C15.9557 1.45987 14.8837 1.00991 13.763 1.00016C12.6424 0.990414 11.5627 1.42166 10.7566 2.201L9.28629 3.66423M11.2096 8.64431C10.8425 8.15304 10.3742 7.74654 9.83633 7.4524C9.29848 7.15825 8.70372 6.98333 8.0924 6.9395C7.48108 6.89568 6.86749 6.98397 6.29326 7.19839C5.71902 7.41282 5.19757 7.74835 4.76427 8.18224L2.1998 10.7493C1.42123 11.5562 0.990423 12.637 1.00016 13.7588C1.0099 14.8805 1.4594 15.9536 2.25186 16.7469C3.04432 17.5401 4.11632 17.9901 5.23698 17.9998C6.35765 18.0096 7.4373 17.5783 8.24341 16.799L9.70516 15.3358" stroke="black" stroke-width="1.5" stroke-linecap="round" stroke-linejoin="round"/>
</svg>
