<svg width="19" height="19" viewBox="0 0 19 19" fill="none" xmlns="http://www.w3.org/2000/svg">
<path d="M4.4 6.95V1H14.6V6.95M4.4 14.6H2.7C2.24913 14.6 1.81673 14.4209 1.49792 14.1021C1.17911 13.7833 1 13.3509 1 12.9V8.65C1 8.19913 1.17911 7.76673 1.49792 7.44792C1.81673 7.12911 2.24913 6.95 2.7 6.95H16.3C16.7509 6.95 17.1833 7.12911 17.5021 7.44792C17.8209 7.76673 18 8.19913 18 8.65V12.9C18 13.3509 17.8209 13.7833 17.5021 14.1021C17.1833 14.4209 16.7509 14.6 16.3 14.6H14.6M4.4 11.2H14.6V18H4.4V11.2Z" stroke="black" stroke-width="1.5" stroke-linecap="round" stroke-linejoin="round"/>
</svg>
