<svg width="17" height="19" viewBox="0 0 17 19" fill="none" xmlns="http://www.w3.org/2000/svg">
    <path d="M1 4.4H2.66667M2.66667 4.4H16M2.66667 4.4V16.3C2.66667 16.7509 2.84226 17.1833 3.15482 17.5021C3.46738 17.8209 3.89131 18 4.33333 18H12.6667C13.1087 18 13.5326 17.8209 13.8452 17.5021C14.1577 17.1833 14.3333 16.7509 14.3333 16.3V4.4M5.16667 4.4V2.7C5.16667 2.24913 5.34226 1.81673 5.65482 1.49792C5.96738 1.17911 6.39131 1 6.83333 1H10.1667C10.6087 1 11.0326 1.17911 11.3452 1.49792C11.6577 1.81673 11.8333 2.24913 11.8333 2.7V4.4M6.83333 8.65V13.75M10.1667 8.65V13.75" stroke="#D31408" stroke-width="1.5" stroke-linecap="round" stroke-linejoin="round"/>
</svg>
